PathFileType	4	(X/Y/Z)	Patient4_TMGait_0pt5_02_right_35.trc.trc
DataRate	CameraRate	NumFrames	NumMarkers	Units	OrigDataRate	OrigDataStartFrame	OrigNumFrames
77.777777777778	77.777777777778	7	33	mm	77.777777777778	53	       141
Frame#	Time	Sacral			L.Shoulder			Chest			R.Shoulder			Neck			R.ASIS			L.ASIS			R.Thigh.Superior			R.Thigh.Lateral			R.Thigh.Inferior			R.Patella			L.Thigh.Superior			L.Thigh.Lateral			L.Thigh.Inferior			L.Patella			L.Shank.Superior			L.Shank.Lateral			L.Shank.Inferior			R.Shank.Superior			R.Shank.Lateral			R.Shank.Inferior			R.Heel			R.Midfoot.Superior			R.Midfoot.Lateral			R.Toe			L.Heel			L.Midfoot.Lateral			L.Midfoot.Superior			L.Toe			L.Elbow			L.Wrist			R.Elbow			R.Wrist			
		X1	Y1	Z1	X2	Y2	Z2	X3	Y3	Z3	X4	Y4	Z4	X5	Y5	Z5	X6	Y6	Z6	X7	Y7	Z7	X8	Y8	Z8	X9	Y9	Z9	X10	Y10	Z10	X11	Y11	Z11	X12	Y12	Z12	X13	Y13	Z13	X14	Y14	Z14	X15	Y15	Z15	X16	Y16	Z16	X17	Y17	Z17	X18	Y18	Z18	X19	Y19	Z19	X20	Y20	Z20	X21	Y21	Z21	X22	Y22	Z22	X23	Y23	Z23	X24	Y24	Z24	X25	Y25	Z25	X26	Y26	Z26	X27	Y27	Z27	X28	Y28	Z28	X29	Y29	Z29	X30	Y30	Z30	X31	Y31	Z31	X32	Y32	Z32	X33	Y33	Z33	

53	46.408571428571	724.378949890403	1011.007237326204	536.888751538069	889.017889264116	1441.232542316437	354.440470594239	1004.027731146703	1365.992472411863	504.011056706400	937.944764142130	1434.856515688799	687.704381777421	904.176750284197	1498.439885911102	506.938186681592	958.256467562801	945.511256332557	637.858547431839	926.161740500324	965.301909160582	366.146942691201	986.719419748469	741.314747321597	607.253838737648	902.706798433413	635.498307839315	668.275101821289	974.306269457678	581.045653409735	585.714016214044	970.107519756152	493.671772294178	590.941038909074	1010.429244852997	787.997081484569	387.860073457866	965.269181891642	658.897616029767	311.493096470916	1073.980731151915	600.495879907189	363.910143900571	1093.511823142584	516.240004792252	356.528788148761	1044.645158369360	441.757419390945	352.962973068041	919.818405287193	360.954696316250	310.102808222094	949.172805709245	233.755618621691	364.494699873648	941.715780494044	405.588866160545	596.503609836787	868.546929593124	300.989063113343	654.756743570091	912.117419630949	207.836810346717	589.036312155741	777.890272617738	42.752190981406	552.712616638754	950.037539098406	97.890937874794	587.106257884428	862.219640658508	36.293253643067	626.510673560015	1069.945534087890	46.440394617809	612.117066558792	788.801328197688	114.756651925581	409.895364316340	854.033487708329	88.056415488476	327.514365411810	951.621986493695	128.813853883289	344.207932764467	1058.867129039938	46.565656826003	314.018612240453	811.204380731626	1090.804462371685	248.089354568944	834.176665286572	832.092604021745	239.391712866358	1016.337697045087	1094.099092387680	800.258864689736	1233.606984595992	960.250548275363	752.830480066915	
54	46.421428571429	723.803345073509	1011.522327298466	538.195231484352	887.540578477042	1441.938918421295	355.788704699465	1003.806704632281	1366.027823046240	503.997820178288	939.602274836588	1434.441683979999	688.468997393699	904.155780868674	1498.577135427388	508.291493630055	958.112026735572	945.390575837115	637.232188278235	924.443123252617	965.789874713890	365.749220713192	984.097826899901	740.718763189929	606.230911794001	899.684399280594	635.503463711458	668.333715785875	969.946539647021	580.409280090366	585.350101595629	965.024403939913	493.335330418397	590.812044207076	1008.566258714578	788.761059233118	387.585783869796	963.930157168809	659.351208073631	311.387221207167	1072.148629092840	601.201345346639	364.773551574082	1093.057056111750	518.961604355058	357.283660744279	1048.362470297525	443.881277871466	352.800314885485	929.560236081653	355.443186106232	308.813643353657	967.325221716553	229.887569976037	362.530225175803	936.316927835727	405.326892219315	596.440060031782	862.943836545634	300.963862638152	654.824556109165	906.068985405107	207.669511995952	589.008109602600	771.406453260006	42.762212115144	552.742044109639	943.567741663448	97.812493405286	587.095101726581	855.744309309428	36.282280442050	626.553809064442	1063.445185598022	46.343975499275	612.169848411888	815.578509143416	99.753299887106	406.873151718088	882.464765592447	78.515992688904	324.277758803696	977.036789626050	125.512723333092	341.451855142512	1089.547291143201	51.142784733283	310.592465118450	803.550708508275	1093.375187375006	248.874842218651	821.857578299266	834.212605331775	241.092099739915	1023.429521816153	1095.204805715417	799.660727896704	1246.480402978053	973.836265405054	747.447360815503	
55	46.434285714286	723.249829779054	1011.938838673132	539.303311052590	886.218258813335	1442.500591321152	356.949585702725	1003.651841710693	1365.907782177756	503.849587480652	941.236173363327	1433.867606187692	689.045916377504	904.219546161921	1498.580070416494	509.460028485956	957.925982198171	945.177582487742	636.567838682115	922.810307996931	966.063023505871	365.253897874240	981.615015848154	740.081246723993	605.331590282939	896.738036203750	635.451228432445	668.368309902257	965.746655018667	579.745444697557	585.043345637117	960.109087402885	492.960003074250	590.692975373341	1006.354925145973	788.906104096563	387.409442620005	962.061118154897	659.335847853222	311.281896253784	1069.489230826907	601.159752588873	365.952890149052	1091.708027290482	521.141181875165	358.404792874911	1051.296062587471	445.820017397486	352.867783721335	939.306004773530	350.027974478514	307.367739721885	985.287463462736	226.759730834593	360.664632835211	931.042998557476	405.028360154664	596.360952329766	857.451225125353	300.917137512482	654.877752445807	900.072185335205	207.477078075084	588.965477515457	764.925448370600	42.780485064456	552.769134091048	937.102255299927	97.733188606677	587.086929241410	849.271456148796	36.273111359058	626.593677410542	1056.952706215001	46.216038850789	612.218419102409	842.883663190087	86.016105270713	403.494689968078	911.399188215060	70.273119425534	320.991458729405	1002.442911413512	123.351986219703	338.943867204233	1119.825005499742	57.154592397775	307.989570960293	796.177444665101	1095.886463551171	249.587598131982	810.256851719442	836.364635253256	242.704894115708	1030.065913776384	1096.166017830915	798.825019052312	1258.109379055719	987.593270952821	741.821609275303	
56	46.447142857143	722.732855167492	1012.253121393805	540.206798280240	885.076302435311	1442.923486216565	357.901038921062	1003.561004534959	1365.648983254243	503.572942707683	942.808332611436	1433.165280160756	689.428626920116	904.366376692456	1498.463233298524	510.421457794571	957.719540495442	944.903621922885	635.892640039774	921.279076032898	966.136419691822	364.673295020149	979.284542213732	739.414189905997	604.591569522680	893.846892934070	635.357148678922	668.385050744120	961.702048311775	579.061523096573	584.816193431588	955.339975970459	492.548949476535	590.597493693402	1003.841755550703	788.476488462496	387.308471095917	959.706608969439	658.907784316018	311.116892823873	1066.134680030306	600.461288056597	367.290173696169	1089.588766385541	522.819519326864	359.760086045824	1053.491824579315	447.611485029543	353.093607804644	948.949006742492	344.895209993536	305.798229937757	1002.804834642115	224.525693855011	358.963815468588	925.879738234862	404.703013579218	596.278082894717	852.045745018366	300.861304965138	654.921097605594	894.120415678890	207.271938025177	588.920205497070	758.446972290877	42.809281612072	552.800340775162	930.640221548431	97.656883441463	587.085517329168	842.800427495205	36.266863728547	626.633435227028	1050.468559955148	46.062933834181	612.265142354962	870.271161886162	73.914468469703	399.955181016100	940.370790528001	63.547130330566	317.842273858016	1027.458664813678	122.443797630977	336.790315475021	1149.238584048424	64.541435472002	306.337533301621	789.126140292820	1098.318118650917	250.248533377446	799.352878489733	838.511064143236	244.222474745574	1036.266809235782	1096.987021031237	797.729429523913	1268.479089218547	1001.415073259710	735.997734846483	
57	46.460000000000	722.269914826068	1012.462894209564	540.905293466551	884.129691457475	1443.217230167189	358.624244089005	1003.529346068564	1365.274449982910	503.173701335052	944.284273498794	1432.371578079906	689.612762990878	904.588443264605	1498.244408880501	511.156078940613	957.516387255062	944.594615563120	635.215043623087	919.861562831608	966.032559458373	364.016502121446	977.108703759649	738.726981253791	604.018446910703	890.991374798047	635.237154739932	668.382529366001	957.793858085110	578.365676981488	584.671061379864	950.685513423864	492.107251069649	590.526885695518	1001.094403236664	787.545479767118	387.249669838183	956.941868419774	658.136002535424	310.843259005155	1062.262329422232	599.225171610113	368.617364266264	1086.858405861697	524.051671196002	361.204843417959	1055.019128858943	449.281691513899	353.393725852307	958.331169504651	340.194422625383	304.171813690231	1019.601781840575	223.248012660864	357.474219392815	920.803769712288	404.361219738717	596.195638590271	846.699780183204	300.809063596436	654.957092526996	888.203882642096	207.065703426652	588.880263125670	751.970247656608	42.849119922743	552.839837925680	924.181618374478	97.588288418387	587.095679339230	836.330223742194	36.264502430509	626.676432383841	1043.991542407524	45.894769380703	612.311668418994	897.222948769598	63.690951484148	396.482619089421	968.823846431879	58.419928327664	315.009727823566	1051.663407067067	122.770150683453	335.051787311184	1177.308194400848	73.078328651523	305.641205030077	782.440755547135	1100.653106227245	250.864167748461	789.136043624301	840.621204120940	245.634838245973	1042.042687979412	1097.680523215784	796.355708440626	1277.585362181274	1015.196685079209	730.022658036721	
58	46.472857142857	721.877787487020	1012.567365023350	541.401053606633	883.380451268257	1443.392407753697	359.104398384977	1003.548552454735	1364.810396498486	502.655946625250	945.634387471116	1431.524737204730	689.595968410839	904.870595883278	1497.941642459020	511.648207594748	957.340720256561	944.268848652767	634.528992324379	918.568916321565	965.776784239213	363.289662337634	975.081118925787	738.025336256742	603.593288429423	888.157496926380	635.105264186053	668.352467118288	953.995343414210	577.665803767770	584.591654181236	946.111776230206	491.639718273932	590.470413918957	998.204953881773	786.211334345241	387.194281311836	953.876945643920	657.094557649146	310.435443156325	1058.089120576173	597.590248385831	369.779742525910	1083.710886664861	524.900901679232	362.597292075044	1055.969817385408	450.837425583468	353.683506713100	967.250512796276	336.029216179901	302.584920781390	1035.386462161610	222.891557192540	356.220945341306	915.789180928656	404.012260840818	596.110686988979	841.386335930992	300.771904239893	654.985576607406	882.311950835931	206.867447245115	588.849143522003	745.493974177150	42.898956437405	552.889471321051	917.728114241088	97.533012436502	587.124113964730	829.859516050390	36.266760745973	626.725706726655	1037.519128266453	45.723785772920	612.358812300645	923.158550719283	55.453749023552	393.318670727616	996.120276217222	54.838309423073	312.647433332353	1074.601123498270	124.182784135511	333.737807973249	1203.535988050051	82.377544475798	305.772647092108	776.167152266373	1102.873877177215	251.425751853861	779.612012869945	842.666239548446	246.929844836680	1047.394966792345	1098.264090461113	794.693963146181	1285.434755093448	1028.834437673984	723.944569100194	
59	46.485714285714	721.568874929305	1012.567580735342	541.695735109577	882.816876929951	1443.458053709865	359.331180265407	1003.606697974065	1364.283085008765	502.021383457882	946.834296756930	1430.659977329575	689.377501854024	905.190277094186	1497.570613919645	511.887040622469	957.215629842748	943.936412239152	633.820135241883	917.414495935431	965.393334740065	362.495805003940	973.189833446996	737.310818926262	603.274904009633	885.340110287182	634.971461979187	668.281364124812	950.279325272143	576.968079198859	584.547020152192	941.590001669852	491.148993740628	590.407588566438	995.290841297338	784.591058420305	387.102477440692	950.654920051766	655.855150308206	309.898422230314	1053.858721021049	595.703853908642	370.656165636285	1080.368960315859	525.432138219268	363.812774104083	1056.454700088332	452.260946823277	353.890799409066	975.478346295234	332.450433870503	301.152009288617	1049.859655492855	223.324959049324	355.211262453744	910.814323601224	403.662541745536	596.014689468165	836.084139932834	300.758204452327	655.003518685002	876.435565902527	206.682151084707	588.825648559064	739.016450773662	42.956285436353	552.948920727876	911.282176523132	97.496115280068	587.177489970673	823.386622417306	36.273903058638	626.783196293387	1031.047977037154	45.562614726268	612.406585873995	947.453874880627	49.177523982624	390.694268119195	1021.563758501223	52.626673816632	310.868098701028	1095.793484723362	126.414714698828	332.812911250220	1227.418122436985	91.910027334149	306.489877104140	770.351358860559	1104.959067683709	251.909761301945	770.802239648489	844.615017092089	248.093253685030	1052.317282760222	1098.756578025962	792.745949660739	1292.044571271644	1042.226325659937	717.811634708399	
